%TF.GenerationSoftware,KiCad,Pcbnew,6.0.11-2627ca5db0~126~ubuntu20.04.1*%
%TF.CreationDate,2023-11-05T14:24:41-05:00*%
%TF.ProjectId,tps63001-slim,74707336-3330-4303-912d-736c696d2e6b,rev?*%
%TF.SameCoordinates,Original*%
%TF.FileFunction,Legend,Top*%
%TF.FilePolarity,Positive*%
%FSLAX46Y46*%
G04 Gerber Fmt 4.6, Leading zero omitted, Abs format (unit mm)*
G04 Created by KiCad (PCBNEW 6.0.11-2627ca5db0~126~ubuntu20.04.1) date 2023-11-05 14:24:41*
%MOMM*%
%LPD*%
G01*
G04 APERTURE LIST*
%ADD10C,0.150000*%
%ADD11C,0.120000*%
G04 APERTURE END LIST*
D10*
%TO.C,C5*%
X112101333Y-112117142D02*
X112053714Y-112164761D01*
X111910857Y-112212380D01*
X111815619Y-112212380D01*
X111672761Y-112164761D01*
X111577523Y-112069523D01*
X111529904Y-111974285D01*
X111482285Y-111783809D01*
X111482285Y-111640952D01*
X111529904Y-111450476D01*
X111577523Y-111355238D01*
X111672761Y-111260000D01*
X111815619Y-111212380D01*
X111910857Y-111212380D01*
X112053714Y-111260000D01*
X112101333Y-111307619D01*
X113006095Y-111212380D02*
X112529904Y-111212380D01*
X112482285Y-111688571D01*
X112529904Y-111640952D01*
X112625142Y-111593333D01*
X112863238Y-111593333D01*
X112958476Y-111640952D01*
X113006095Y-111688571D01*
X113053714Y-111783809D01*
X113053714Y-112021904D01*
X113006095Y-112117142D01*
X112958476Y-112164761D01*
X112863238Y-112212380D01*
X112625142Y-112212380D01*
X112529904Y-112164761D01*
X112482285Y-112117142D01*
%TO.C,C2*%
X104481333Y-112117142D02*
X104433714Y-112164761D01*
X104290857Y-112212380D01*
X104195619Y-112212380D01*
X104052761Y-112164761D01*
X103957523Y-112069523D01*
X103909904Y-111974285D01*
X103862285Y-111783809D01*
X103862285Y-111640952D01*
X103909904Y-111450476D01*
X103957523Y-111355238D01*
X104052761Y-111260000D01*
X104195619Y-111212380D01*
X104290857Y-111212380D01*
X104433714Y-111260000D01*
X104481333Y-111307619D01*
X104862285Y-111307619D02*
X104909904Y-111260000D01*
X105005142Y-111212380D01*
X105243238Y-111212380D01*
X105338476Y-111260000D01*
X105386095Y-111307619D01*
X105433714Y-111402857D01*
X105433714Y-111498095D01*
X105386095Y-111640952D01*
X104814666Y-112212380D01*
X105433714Y-112212380D01*
%TO.C,C6*%
X114627333Y-108053142D02*
X114579714Y-108100761D01*
X114436857Y-108148380D01*
X114341619Y-108148380D01*
X114198761Y-108100761D01*
X114103523Y-108005523D01*
X114055904Y-107910285D01*
X114008285Y-107719809D01*
X114008285Y-107576952D01*
X114055904Y-107386476D01*
X114103523Y-107291238D01*
X114198761Y-107196000D01*
X114341619Y-107148380D01*
X114436857Y-107148380D01*
X114579714Y-107196000D01*
X114627333Y-107243619D01*
X115484476Y-107148380D02*
X115294000Y-107148380D01*
X115198761Y-107196000D01*
X115151142Y-107243619D01*
X115055904Y-107386476D01*
X115008285Y-107576952D01*
X115008285Y-107957904D01*
X115055904Y-108053142D01*
X115103523Y-108100761D01*
X115198761Y-108148380D01*
X115389238Y-108148380D01*
X115484476Y-108100761D01*
X115532095Y-108053142D01*
X115579714Y-107957904D01*
X115579714Y-107719809D01*
X115532095Y-107624571D01*
X115484476Y-107576952D01*
X115389238Y-107529333D01*
X115198761Y-107529333D01*
X115103523Y-107576952D01*
X115055904Y-107624571D01*
X115008285Y-107719809D01*
%TO.C,U1*%
X104394095Y-106132380D02*
X104394095Y-106941904D01*
X104441714Y-107037142D01*
X104489333Y-107084761D01*
X104584571Y-107132380D01*
X104775047Y-107132380D01*
X104870285Y-107084761D01*
X104917904Y-107037142D01*
X104965523Y-106941904D01*
X104965523Y-106132380D01*
X105965523Y-107132380D02*
X105394095Y-107132380D01*
X105679809Y-107132380D02*
X105679809Y-106132380D01*
X105584571Y-106275238D01*
X105489333Y-106370476D01*
X105394095Y-106418095D01*
%TO.C,C4*%
X110069333Y-112117142D02*
X110021714Y-112164761D01*
X109878857Y-112212380D01*
X109783619Y-112212380D01*
X109640761Y-112164761D01*
X109545523Y-112069523D01*
X109497904Y-111974285D01*
X109450285Y-111783809D01*
X109450285Y-111640952D01*
X109497904Y-111450476D01*
X109545523Y-111355238D01*
X109640761Y-111260000D01*
X109783619Y-111212380D01*
X109878857Y-111212380D01*
X110021714Y-111260000D01*
X110069333Y-111307619D01*
X110926476Y-111545714D02*
X110926476Y-112212380D01*
X110688380Y-111164761D02*
X110450285Y-111879047D01*
X111069333Y-111879047D01*
%TO.C,C1*%
X102449333Y-112117142D02*
X102401714Y-112164761D01*
X102258857Y-112212380D01*
X102163619Y-112212380D01*
X102020761Y-112164761D01*
X101925523Y-112069523D01*
X101877904Y-111974285D01*
X101830285Y-111783809D01*
X101830285Y-111640952D01*
X101877904Y-111450476D01*
X101925523Y-111355238D01*
X102020761Y-111260000D01*
X102163619Y-111212380D01*
X102258857Y-111212380D01*
X102401714Y-111260000D01*
X102449333Y-111307619D01*
X103401714Y-112212380D02*
X102830285Y-112212380D01*
X103116000Y-112212380D02*
X103116000Y-111212380D01*
X103020761Y-111355238D01*
X102925523Y-111450476D01*
X102830285Y-111498095D01*
%TO.C,J1*%
X101266666Y-113244380D02*
X101266666Y-113958666D01*
X101219047Y-114101523D01*
X101123809Y-114196761D01*
X100980952Y-114244380D01*
X100885714Y-114244380D01*
X102266666Y-114244380D02*
X101695238Y-114244380D01*
X101980952Y-114244380D02*
X101980952Y-113244380D01*
X101885714Y-113387238D01*
X101790476Y-113482476D01*
X101695238Y-113530095D01*
%TO.C,C3*%
X100833333Y-108053142D02*
X100785714Y-108100761D01*
X100642857Y-108148380D01*
X100547619Y-108148380D01*
X100404761Y-108100761D01*
X100309523Y-108005523D01*
X100261904Y-107910285D01*
X100214285Y-107719809D01*
X100214285Y-107576952D01*
X100261904Y-107386476D01*
X100309523Y-107291238D01*
X100404761Y-107196000D01*
X100547619Y-107148380D01*
X100642857Y-107148380D01*
X100785714Y-107196000D01*
X100833333Y-107243619D01*
X101166666Y-107148380D02*
X101785714Y-107148380D01*
X101452380Y-107529333D01*
X101595238Y-107529333D01*
X101690476Y-107576952D01*
X101738095Y-107624571D01*
X101785714Y-107719809D01*
X101785714Y-107957904D01*
X101738095Y-108053142D01*
X101690476Y-108100761D01*
X101595238Y-108148380D01*
X101309523Y-108148380D01*
X101214285Y-108100761D01*
X101166666Y-108053142D01*
%TO.C,L1*%
X103465333Y-101544380D02*
X102989142Y-101544380D01*
X102989142Y-100544380D01*
X104322476Y-101544380D02*
X103751047Y-101544380D01*
X104036761Y-101544380D02*
X104036761Y-100544380D01*
X103941523Y-100687238D01*
X103846285Y-100782476D01*
X103751047Y-100830095D01*
D11*
%TO.C,C5*%
X113511000Y-108958748D02*
X113511000Y-109481252D01*
X112041000Y-108958748D02*
X112041000Y-109481252D01*
%TO.C,C2*%
X105383000Y-108958748D02*
X105383000Y-109481252D01*
X103913000Y-108958748D02*
X103913000Y-109481252D01*
%TO.C,C6*%
X111774000Y-102390000D02*
X111774000Y-106775000D01*
X114794000Y-106775000D02*
X114794000Y-102390000D01*
X111774000Y-106775000D02*
X114794000Y-106775000D01*
%TO.C,U1*%
X109460000Y-109220000D02*
X109460000Y-110720000D01*
X106240000Y-107720000D02*
X106240000Y-110720000D01*
%TO.C,C4*%
X110009000Y-108958748D02*
X110009000Y-109481252D01*
X111479000Y-108958748D02*
X111479000Y-109481252D01*
%TO.C,C1*%
X103351000Y-108958748D02*
X103351000Y-109481252D01*
X101881000Y-108958748D02*
X101881000Y-109481252D01*
%TO.C,J1*%
X105257000Y-112470000D02*
X112937000Y-112470000D01*
X112937000Y-115130000D02*
X112937000Y-112470000D01*
X105257000Y-115130000D02*
X112937000Y-115130000D01*
X102657000Y-115130000D02*
X102657000Y-113800000D01*
X103987000Y-115130000D02*
X102657000Y-115130000D01*
X105257000Y-115130000D02*
X105257000Y-112470000D01*
%TO.C,C3*%
X103618000Y-106775000D02*
X103618000Y-102390000D01*
X100598000Y-106775000D02*
X103618000Y-106775000D01*
X100598000Y-102390000D02*
X100598000Y-106775000D01*
%TO.C,L1*%
X107420000Y-105834000D02*
X108280000Y-105834000D01*
X107420000Y-100414000D02*
X108280000Y-100414000D01*
%TD*%
M02*
