%TF.GenerationSoftware,KiCad,Pcbnew,6.0.11-2627ca5db0~126~ubuntu20.04.1*%
%TF.CreationDate,2023-11-05T14:24:41-05:00*%
%TF.ProjectId,tps63001-slim,74707336-3330-4303-912d-736c696d2e6b,rev?*%
%TF.SameCoordinates,Original*%
%TF.FileFunction,Copper,L2,Bot*%
%TF.FilePolarity,Positive*%
%FSLAX46Y46*%
G04 Gerber Fmt 4.6, Leading zero omitted, Abs format (unit mm)*
G04 Created by KiCad (PCBNEW 6.0.11-2627ca5db0~126~ubuntu20.04.1) date 2023-11-05 14:24:41*
%MOMM*%
%LPD*%
G01*
G04 APERTURE LIST*
%TA.AperFunction,ComponentPad*%
%ADD10C,0.600000*%
%TD*%
%TA.AperFunction,SMDPad,CuDef*%
%ADD11R,2.000000X0.600000*%
%TD*%
%TA.AperFunction,ComponentPad*%
%ADD12C,1.700000*%
%TD*%
%TA.AperFunction,ComponentPad*%
%ADD13O,1.700000X1.700000*%
%TD*%
%TA.AperFunction,ViaPad*%
%ADD14C,0.800000*%
%TD*%
%TA.AperFunction,Conductor*%
%ADD15C,0.250000*%
%TD*%
%TA.AperFunction,Conductor*%
%ADD16C,0.500000*%
%TD*%
G04 APERTURE END LIST*
D10*
%TO.P,U1,11,PGND*%
%TO.N,Earth*%
X108550000Y-109220000D03*
X107150000Y-109220000D03*
D11*
X107850000Y-109220000D03*
%TD*%
D12*
%TO.P,J1,1,Pin_1*%
%TO.N,Net-(J1-Pad1)*%
X103987000Y-113800000D03*
D13*
%TO.P,J1,2,Pin_2*%
%TO.N,Net-(C4-Pad1)*%
X106527000Y-113800000D03*
%TO.P,J1,3,Pin_3*%
%TO.N,Earth*%
X109067000Y-113800000D03*
%TO.P,J1,4,Pin_4*%
%TO.N,Net-(C1-Pad1)*%
X111607000Y-113800000D03*
%TD*%
D14*
%TO.N,Net-(C1-Pad1)*%
X105800000Y-108044600D03*
%TO.N,Earth*%
X114808000Y-101092000D03*
X101092000Y-114808000D03*
X101092000Y-101092000D03*
X114808000Y-114808000D03*
%TO.N,Net-(C4-Pad1)*%
X109511600Y-107059400D03*
%TD*%
D15*
%TO.N,Net-(C4-Pad1)*%
X106527000Y-113800000D02*
X106527000Y-112624700D01*
X106527000Y-112624700D02*
X105376400Y-111474100D01*
X105376400Y-111474100D02*
X105376400Y-108646305D01*
X105075000Y-107539824D02*
X105555424Y-107059400D01*
X105376400Y-108646305D02*
X105075000Y-108344905D01*
X105075000Y-108344905D02*
X105075000Y-107539824D01*
X105555424Y-107059400D02*
X109511600Y-107059400D01*
D16*
%TO.N,Net-(C1-Pad1)*%
X111607000Y-113800000D02*
X111607000Y-111019000D01*
X111607000Y-111019000D02*
X108632600Y-108044600D01*
X108632600Y-108044600D02*
X106104000Y-108044600D01*
%TO.N,Earth*%
X109067000Y-113800000D02*
X109067000Y-112499700D01*
X108550000Y-111982700D02*
X109067000Y-112499700D01*
X108550000Y-109220000D02*
X108550000Y-111982700D01*
X107850000Y-109220000D02*
X108550000Y-109220000D01*
%TD*%
%TA.AperFunction,Conductor*%
%TO.N,Earth*%
G36*
X115133621Y-100528502D02*
G01*
X115180114Y-100582158D01*
X115191500Y-100634500D01*
X115191500Y-115065500D01*
X115171498Y-115133621D01*
X115117842Y-115180114D01*
X115065500Y-115191500D01*
X112389343Y-115191500D01*
X112321222Y-115171498D01*
X112274729Y-115117842D01*
X112264625Y-115047568D01*
X112294119Y-114982988D01*
X112316175Y-114962921D01*
X112482656Y-114844172D01*
X112482659Y-114844170D01*
X112486860Y-114841173D01*
X112645096Y-114683489D01*
X112704594Y-114600689D01*
X112772435Y-114506277D01*
X112775453Y-114502077D01*
X112788995Y-114474678D01*
X112872136Y-114306453D01*
X112872137Y-114306451D01*
X112874430Y-114301811D01*
X112939370Y-114088069D01*
X112968529Y-113866590D01*
X112970156Y-113800000D01*
X112951852Y-113577361D01*
X112897431Y-113360702D01*
X112808354Y-113155840D01*
X112687014Y-112968277D01*
X112536670Y-112803051D01*
X112532615Y-112799848D01*
X112413407Y-112705703D01*
X112372345Y-112647785D01*
X112365500Y-112606821D01*
X112365500Y-111086070D01*
X112366933Y-111067120D01*
X112369099Y-111052885D01*
X112369099Y-111052881D01*
X112370199Y-111045651D01*
X112365915Y-110992982D01*
X112365500Y-110982767D01*
X112365500Y-110974707D01*
X112362209Y-110946480D01*
X112361778Y-110942121D01*
X112356453Y-110876660D01*
X112355860Y-110869364D01*
X112353605Y-110862403D01*
X112352418Y-110856463D01*
X112351029Y-110850588D01*
X112350182Y-110843319D01*
X112325264Y-110774670D01*
X112323847Y-110770542D01*
X112303607Y-110708064D01*
X112303606Y-110708062D01*
X112301351Y-110701101D01*
X112297555Y-110694846D01*
X112295049Y-110689372D01*
X112292330Y-110683942D01*
X112289833Y-110677063D01*
X112249814Y-110616024D01*
X112247467Y-110612305D01*
X112209595Y-110549893D01*
X112202197Y-110541516D01*
X112202224Y-110541492D01*
X112199571Y-110538500D01*
X112196868Y-110535267D01*
X112192856Y-110529148D01*
X112136617Y-110475872D01*
X112134175Y-110473494D01*
X109781668Y-108120987D01*
X109747642Y-108058675D01*
X109752707Y-107987860D01*
X109795254Y-107931024D01*
X109819514Y-107916785D01*
X109962322Y-107853203D01*
X109962324Y-107853202D01*
X109968352Y-107850518D01*
X110122853Y-107738266D01*
X110250640Y-107596344D01*
X110308914Y-107495410D01*
X110342823Y-107436679D01*
X110342824Y-107436678D01*
X110346127Y-107430956D01*
X110405142Y-107249328D01*
X110408009Y-107222056D01*
X110424414Y-107065965D01*
X110425104Y-107059400D01*
X110405142Y-106869472D01*
X110346127Y-106687844D01*
X110250640Y-106522456D01*
X110234482Y-106504510D01*
X110127275Y-106385445D01*
X110127274Y-106385444D01*
X110122853Y-106380534D01*
X109968352Y-106268282D01*
X109962324Y-106265598D01*
X109962322Y-106265597D01*
X109799919Y-106193291D01*
X109799918Y-106193291D01*
X109793888Y-106190606D01*
X109700487Y-106170753D01*
X109613544Y-106152272D01*
X109613539Y-106152272D01*
X109607087Y-106150900D01*
X109416113Y-106150900D01*
X109409661Y-106152272D01*
X109409656Y-106152272D01*
X109322712Y-106170753D01*
X109229312Y-106190606D01*
X109223282Y-106193291D01*
X109223281Y-106193291D01*
X109060878Y-106265597D01*
X109060876Y-106265598D01*
X109054848Y-106268282D01*
X108900347Y-106380534D01*
X108895932Y-106385437D01*
X108891020Y-106389860D01*
X108889895Y-106388611D01*
X108836586Y-106421451D01*
X108803400Y-106425900D01*
X105634191Y-106425900D01*
X105623008Y-106425373D01*
X105615515Y-106423698D01*
X105607589Y-106423947D01*
X105607588Y-106423947D01*
X105547438Y-106425838D01*
X105543479Y-106425900D01*
X105515568Y-106425900D01*
X105511634Y-106426397D01*
X105511633Y-106426397D01*
X105511568Y-106426405D01*
X105499731Y-106427338D01*
X105467914Y-106428338D01*
X105463453Y-106428478D01*
X105455534Y-106428727D01*
X105437878Y-106433856D01*
X105436082Y-106434378D01*
X105416730Y-106438386D01*
X105409659Y-106439280D01*
X105396627Y-106440926D01*
X105389258Y-106443843D01*
X105389256Y-106443844D01*
X105355521Y-106457200D01*
X105344293Y-106461045D01*
X105301831Y-106473382D01*
X105295008Y-106477417D01*
X105295006Y-106477418D01*
X105284396Y-106483693D01*
X105266648Y-106492388D01*
X105247807Y-106499848D01*
X105241391Y-106504510D01*
X105241390Y-106504510D01*
X105212037Y-106525836D01*
X105202117Y-106532352D01*
X105170889Y-106550820D01*
X105170886Y-106550822D01*
X105164062Y-106554858D01*
X105149741Y-106569179D01*
X105134708Y-106582019D01*
X105118317Y-106593928D01*
X105091940Y-106625813D01*
X105090136Y-106627993D01*
X105082146Y-106636774D01*
X104682742Y-107036177D01*
X104674463Y-107043711D01*
X104667982Y-107047824D01*
X104650947Y-107065965D01*
X104621357Y-107097475D01*
X104618602Y-107100317D01*
X104598865Y-107120054D01*
X104596385Y-107123251D01*
X104588682Y-107132271D01*
X104558414Y-107164503D01*
X104554595Y-107171449D01*
X104554593Y-107171452D01*
X104548652Y-107182258D01*
X104537801Y-107198777D01*
X104525386Y-107214783D01*
X104522241Y-107222052D01*
X104522238Y-107222056D01*
X104507826Y-107255361D01*
X104502609Y-107266011D01*
X104481305Y-107304764D01*
X104479334Y-107312439D01*
X104479334Y-107312440D01*
X104476267Y-107324386D01*
X104469863Y-107343090D01*
X104461819Y-107361679D01*
X104460580Y-107369502D01*
X104460577Y-107369512D01*
X104454901Y-107405348D01*
X104452495Y-107416968D01*
X104443472Y-107452113D01*
X104441500Y-107459794D01*
X104441500Y-107480048D01*
X104439949Y-107499758D01*
X104436780Y-107519767D01*
X104437526Y-107527659D01*
X104440941Y-107563785D01*
X104441500Y-107575643D01*
X104441500Y-108266138D01*
X104440973Y-108277321D01*
X104439298Y-108284814D01*
X104439547Y-108292740D01*
X104439547Y-108292741D01*
X104441438Y-108352891D01*
X104441500Y-108356850D01*
X104441500Y-108384761D01*
X104441997Y-108388695D01*
X104441997Y-108388696D01*
X104442005Y-108388761D01*
X104442938Y-108400598D01*
X104444327Y-108444794D01*
X104449978Y-108464244D01*
X104453987Y-108483605D01*
X104456526Y-108503702D01*
X104459445Y-108511073D01*
X104459445Y-108511075D01*
X104472804Y-108544817D01*
X104476649Y-108556047D01*
X104488982Y-108598498D01*
X104493015Y-108605317D01*
X104493017Y-108605322D01*
X104499293Y-108615933D01*
X104507988Y-108633681D01*
X104515448Y-108652522D01*
X104520110Y-108658938D01*
X104520110Y-108658939D01*
X104541436Y-108688292D01*
X104547952Y-108698212D01*
X104570458Y-108736267D01*
X104576064Y-108741874D01*
X104584780Y-108750590D01*
X104597620Y-108765623D01*
X104609528Y-108782012D01*
X104615635Y-108787064D01*
X104643598Y-108810197D01*
X104652378Y-108818187D01*
X104705995Y-108871804D01*
X104740021Y-108934116D01*
X104742900Y-108960899D01*
X104742900Y-111395333D01*
X104742373Y-111406516D01*
X104740698Y-111414009D01*
X104740947Y-111421935D01*
X104740947Y-111421936D01*
X104742838Y-111482086D01*
X104742900Y-111486045D01*
X104742900Y-111513956D01*
X104743397Y-111517890D01*
X104743397Y-111517891D01*
X104743405Y-111517956D01*
X104744338Y-111529793D01*
X104745727Y-111573989D01*
X104751378Y-111593439D01*
X104755387Y-111612800D01*
X104757926Y-111632897D01*
X104760845Y-111640268D01*
X104760845Y-111640270D01*
X104774204Y-111674012D01*
X104778049Y-111685242D01*
X104790382Y-111727693D01*
X104794415Y-111734512D01*
X104794417Y-111734517D01*
X104800693Y-111745128D01*
X104809388Y-111762876D01*
X104816848Y-111781717D01*
X104821510Y-111788133D01*
X104821510Y-111788134D01*
X104842836Y-111817487D01*
X104849352Y-111827407D01*
X104871858Y-111865462D01*
X104886179Y-111879783D01*
X104899019Y-111894816D01*
X104910928Y-111911207D01*
X104917032Y-111916257D01*
X104917037Y-111916262D01*
X104944998Y-111939393D01*
X104953778Y-111947383D01*
X105615528Y-112609133D01*
X105649554Y-112671445D01*
X105644489Y-112742260D01*
X105617527Y-112785279D01*
X105467629Y-112942138D01*
X105360201Y-113099621D01*
X105305293Y-113144621D01*
X105234768Y-113152792D01*
X105171021Y-113121538D01*
X105150324Y-113097054D01*
X105069822Y-112972617D01*
X105069820Y-112972614D01*
X105067014Y-112968277D01*
X104916670Y-112803051D01*
X104912619Y-112799852D01*
X104912615Y-112799848D01*
X104745414Y-112667800D01*
X104745410Y-112667798D01*
X104741359Y-112664598D01*
X104736831Y-112662098D01*
X104640884Y-112609133D01*
X104545789Y-112556638D01*
X104540920Y-112554914D01*
X104540916Y-112554912D01*
X104340087Y-112483795D01*
X104340083Y-112483794D01*
X104335212Y-112482069D01*
X104330119Y-112481162D01*
X104330116Y-112481161D01*
X104120373Y-112443800D01*
X104120367Y-112443799D01*
X104115284Y-112442894D01*
X104041452Y-112441992D01*
X103897081Y-112440228D01*
X103897079Y-112440228D01*
X103891911Y-112440165D01*
X103671091Y-112473955D01*
X103458756Y-112543357D01*
X103398086Y-112574940D01*
X103354017Y-112597881D01*
X103260607Y-112646507D01*
X103256474Y-112649610D01*
X103256471Y-112649612D01*
X103086100Y-112777530D01*
X103081965Y-112780635D01*
X102927629Y-112942138D01*
X102801743Y-113126680D01*
X102707688Y-113329305D01*
X102647989Y-113544570D01*
X102624251Y-113766695D01*
X102624548Y-113771848D01*
X102624548Y-113771851D01*
X102630011Y-113866590D01*
X102637110Y-113989715D01*
X102638247Y-113994761D01*
X102638248Y-113994767D01*
X102649031Y-114042614D01*
X102686222Y-114207639D01*
X102770266Y-114414616D01*
X102821019Y-114497438D01*
X102884291Y-114600688D01*
X102886987Y-114605088D01*
X103033250Y-114773938D01*
X103205126Y-114916632D01*
X103273715Y-114956712D01*
X103322439Y-115008350D01*
X103335510Y-115078133D01*
X103308779Y-115143905D01*
X103250732Y-115184784D01*
X103210145Y-115191500D01*
X100634500Y-115191500D01*
X100566379Y-115171498D01*
X100519886Y-115117842D01*
X100508500Y-115065500D01*
X100508500Y-100634500D01*
X100528502Y-100566379D01*
X100582158Y-100519886D01*
X100634500Y-100508500D01*
X115065500Y-100508500D01*
X115133621Y-100528502D01*
G37*
%TD.AperFunction*%
%TA.AperFunction,Conductor*%
G36*
X107713735Y-108823102D02*
G01*
X107760228Y-108876758D01*
X107770332Y-108947032D01*
X107767565Y-108955344D01*
X107768068Y-108962365D01*
X107777815Y-108966000D01*
X107918675Y-108966000D01*
X107932205Y-108962027D01*
X107933822Y-108950779D01*
X107928126Y-108911172D01*
X107957617Y-108846590D01*
X108017343Y-108808205D01*
X108052844Y-108803100D01*
X108266229Y-108803100D01*
X108334350Y-108823102D01*
X108355324Y-108840005D01*
X108733169Y-109217850D01*
X108767195Y-109280162D01*
X108762130Y-109350977D01*
X108733169Y-109396040D01*
X108550000Y-109579209D01*
X108187680Y-109941530D01*
X108125368Y-109975556D01*
X108107637Y-109978105D01*
X108104000Y-109987857D01*
X108104000Y-110009884D01*
X108108475Y-110025123D01*
X108109865Y-110026328D01*
X108117548Y-110027999D01*
X108487611Y-110027999D01*
X108504276Y-110029106D01*
X108525991Y-110032004D01*
X108539986Y-110032297D01*
X108581503Y-110028518D01*
X108592923Y-110027999D01*
X108894669Y-110027999D01*
X108901490Y-110027629D01*
X108952352Y-110022105D01*
X108967604Y-110018479D01*
X109088054Y-109973324D01*
X109103649Y-109964786D01*
X109205724Y-109888285D01*
X109215569Y-109878440D01*
X109277881Y-109844414D01*
X109348696Y-109849479D01*
X109393759Y-109878440D01*
X110811595Y-111296276D01*
X110845621Y-111358588D01*
X110848500Y-111385371D01*
X110848500Y-112607655D01*
X110828498Y-112675776D01*
X110798153Y-112708415D01*
X110706100Y-112777530D01*
X110701965Y-112780635D01*
X110547629Y-112942138D01*
X110440204Y-113099618D01*
X110439898Y-113100066D01*
X110384987Y-113145069D01*
X110314462Y-113153240D01*
X110250715Y-113121986D01*
X110230018Y-113097502D01*
X110149426Y-112972926D01*
X110143136Y-112964757D01*
X109999806Y-112807240D01*
X109992273Y-112800215D01*
X109825139Y-112668222D01*
X109816552Y-112662517D01*
X109630117Y-112559599D01*
X109620705Y-112555369D01*
X109419959Y-112484280D01*
X109409988Y-112481646D01*
X109338837Y-112468972D01*
X109325540Y-112470432D01*
X109321000Y-112484989D01*
X109321000Y-113928000D01*
X109300998Y-113996121D01*
X109247342Y-114042614D01*
X109195000Y-114054000D01*
X108939000Y-114054000D01*
X108870879Y-114033998D01*
X108824386Y-113980342D01*
X108813000Y-113928000D01*
X108813000Y-112483102D01*
X108809082Y-112469758D01*
X108794806Y-112467771D01*
X108756324Y-112473660D01*
X108746288Y-112476051D01*
X108543868Y-112542212D01*
X108534359Y-112546209D01*
X108345463Y-112644542D01*
X108336738Y-112650036D01*
X108166433Y-112777905D01*
X108158726Y-112784748D01*
X108011590Y-112938717D01*
X108005109Y-112946722D01*
X107900498Y-113100074D01*
X107845587Y-113145076D01*
X107775062Y-113153247D01*
X107711315Y-113121993D01*
X107690618Y-113097509D01*
X107609822Y-112972617D01*
X107609820Y-112972614D01*
X107607014Y-112968277D01*
X107456670Y-112803051D01*
X107452619Y-112799852D01*
X107452615Y-112799848D01*
X107285414Y-112667800D01*
X107285410Y-112667798D01*
X107281359Y-112664598D01*
X107276835Y-112662101D01*
X107276831Y-112662098D01*
X107222753Y-112632246D01*
X107172781Y-112581814D01*
X107161562Y-112540184D01*
X107159163Y-112540564D01*
X107157922Y-112532730D01*
X107157673Y-112524810D01*
X107152022Y-112505358D01*
X107148014Y-112486006D01*
X107146467Y-112473763D01*
X107145474Y-112465903D01*
X107136723Y-112443800D01*
X107129200Y-112424797D01*
X107125355Y-112413570D01*
X107124721Y-112411387D01*
X107113018Y-112371107D01*
X107102707Y-112353672D01*
X107094012Y-112335924D01*
X107086552Y-112317083D01*
X107060564Y-112281313D01*
X107054048Y-112271393D01*
X107035580Y-112240165D01*
X107035578Y-112240162D01*
X107031542Y-112233338D01*
X107017221Y-112219017D01*
X107004380Y-112203983D01*
X106997131Y-112194006D01*
X106992472Y-112187593D01*
X106986368Y-112182543D01*
X106986363Y-112182538D01*
X106958402Y-112159407D01*
X106949621Y-112151417D01*
X106046804Y-111248599D01*
X106012779Y-111186287D01*
X106009900Y-111159504D01*
X106009900Y-109564669D01*
X106342001Y-109564669D01*
X106342371Y-109571490D01*
X106347895Y-109622352D01*
X106351521Y-109637604D01*
X106396676Y-109758054D01*
X106405214Y-109773649D01*
X106481715Y-109875724D01*
X106494276Y-109888285D01*
X106596351Y-109964786D01*
X106611946Y-109973324D01*
X106732394Y-110018478D01*
X106747649Y-110022105D01*
X106798514Y-110027631D01*
X106805328Y-110028000D01*
X107087618Y-110028000D01*
X107104283Y-110029107D01*
X107125991Y-110032004D01*
X107139986Y-110032297D01*
X107181494Y-110028519D01*
X107192914Y-110028000D01*
X107577885Y-110028000D01*
X107593124Y-110023525D01*
X107594329Y-110022135D01*
X107596000Y-110014452D01*
X107596000Y-109991368D01*
X107592027Y-109977838D01*
X107582850Y-109976519D01*
X107518269Y-109947026D01*
X107511685Y-109940896D01*
X107057601Y-109486811D01*
X107034139Y-109474000D01*
X106360116Y-109474000D01*
X106344877Y-109478475D01*
X106343672Y-109479865D01*
X106342001Y-109487548D01*
X106342001Y-109564669D01*
X106009900Y-109564669D01*
X106009900Y-109288674D01*
X108104000Y-109288674D01*
X108107237Y-109299699D01*
X108114328Y-109296461D01*
X108177982Y-109232808D01*
X108185592Y-109218870D01*
X108185461Y-109217034D01*
X108181211Y-109210421D01*
X108116808Y-109146019D01*
X108106724Y-109140513D01*
X108104000Y-109147817D01*
X108104000Y-109288674D01*
X106009900Y-109288674D01*
X106009900Y-109027449D01*
X106029902Y-108959328D01*
X106084651Y-108912342D01*
X106171447Y-108873698D01*
X106241814Y-108864264D01*
X106306111Y-108894370D01*
X106343592Y-108953307D01*
X106346474Y-108963124D01*
X106347865Y-108964329D01*
X106355548Y-108966000D01*
X107026675Y-108966000D01*
X107052320Y-108958470D01*
X107150000Y-108860790D01*
X107150002Y-108860789D01*
X107170786Y-108840005D01*
X107233098Y-108805979D01*
X107259881Y-108803100D01*
X107645614Y-108803100D01*
X107713735Y-108823102D01*
G37*
%TD.AperFunction*%
%TD*%
M02*
